<?xml version="1.0" standalone="no"?>
<!DOCTYPE svg PUBLIC "-//W3C//DTD SVG 20010904//EN"
 "http://www.w3.org/TR/2001/REC-SVG-20010904/DTD/svg10.dtd">
<svg version="1.0" xmlns="http://www.w3.org/2000/svg"
 width="288.000000pt" height="288.000000pt" viewBox="0 0 288.000000 288.000000"
 preserveAspectRatio="xMidYMid meet">

<g transform="translate(0.000000,288.000000) scale(0.100000,-0.100000)"
fill="#5cff5c" stroke="none">
<path d="M2124 2423 c-38 -48 -85 -109 -106 -133 -20 -25 -81 -101 -135 -170
-373 -471 -527 -660 -534 -653 -4 4 -80 100 -169 213 -89 113 -169 214 -178
225 -10 11 -42 51 -72 90 l-55 69 -3 -318 c-1 -174 -1 -457 0 -628 l3 -310
108 136 107 136 0 175 c0 96 3 175 8 174 4 0 36 -36 71 -80 34 -43 66 -79 70
-78 6 0 579 718 928 1162 31 40 42 62 35 69 -7 7 -32 -19 -78 -79z"/>
<path d="M1930 1978 c-36 -46 -285 -360 -555 -698 -743 -932 -710 -889 -698
-901 7 -7 51 42 123 133 199 250 293 370 395 498 54 69 103 131 110 138 9 10
24 -3 71 -62 32 -41 61 -75 64 -75 3 0 79 94 170 210 91 115 168 209 173 209
4 0 7 -144 7 -320 l0 -320 105 0 105 0 0 635 c0 349 -2 635 -3 635 -2 0 -32
-37 -67 -82z"/>
</g>
</svg>
